<svg width="960" height="120" viewBox="0 0 960 120" fill="none" xmlns="http://www.w3.org/2000/svg">
<path d="M0 17L22.8 12.8C45.7 8.69998 91.3 0.299974 137 -2.57911e-05C182.7 -0.300026 228.3 7.29997 274 8.99997C319.7 10.7 365.3 6.29997 411.2 5.19997C457 3.99997 503 5.99997 548.8 7.69997C594.7 9.29997 640.3 10.7 686 14.2C731.7 17.7 777.3 23.3 823 26.5C868.7 29.7 914.3 30.3 937.2 30.7L960 31V120H937.2C914.3 120 868.7 120 823 120C777.3 120 731.7 120 686 120C640.3 120 594.7 120 548.8 120C503 120 457 120 411.2 120C365.3 120 319.7 120 274 120C228.3 120 182.7 120 137 120C91.3 120 45.7 120 22.8 120H0V17Z" fill="#560090"/>
<path d="M0 36L22.8 34.7C45.7 33.3 91.3 30.7 137 27.5C182.7 24.3 228.3 20.7 274 22.3C319.7 24 365.3 31 411.2 34.2C457 37.3 503 36.7 548.8 32.8C594.7 29 640.3 22 686 22.2C731.7 22.3 777.3 29.7 823 31.8C868.7 34 914.3 31 937.2 29.5L960 28V120H937.2C914.3 120 868.7 120 823 120C777.3 120 731.7 120 686 120C640.3 120 594.7 120 548.8 120C503 120 457 120 411.2 120C365.3 120 319.7 120 274 120C228.3 120 182.7 120 137 120C91.3 120 45.7 120 22.8 120H0V36Z" fill="#5F009F"/>
<path d="M0 21L22.8 22.8C45.7 24.7 91.3 28.3 137 31C182.7 33.7 228.3 35.3 274 34.7C319.7 34 365.3 31 411.2 31.3C457 31.7 503 35.3 548.8 35.2C594.7 35 640.3 31 686 31.8C731.7 32.7 777.3 38.3 823 41.5C868.7 44.7 914.3 45.3 937.2 45.7L960 46V120H937.2C914.3 120 868.7 120 823 120C777.3 120 731.7 120 686 120C640.3 120 594.7 120 548.8 120C503 120 457 120 411.2 120C365.3 120 319.7 120 274 120C228.3 120 182.7 120 137 120C91.3 120 45.7 120 22.8 120H0V21Z" fill="#6900AE"/>
<path d="M0 62L22.8 61.8C45.7 61.7 91.3 61.3 137 61.8C182.7 62.3 228.3 63.7 274 61C319.7 58.3 365.3 51.7 411.2 48.2C457 44.7 503 44.3 548.8 47.5C594.7 50.7 640.3 57.3 686 60.3C731.7 63.3 777.3 62.7 823 61.3C868.7 60 914.3 58 937.2 57L960 56V120H937.2C914.3 120 868.7 120 823 120C777.3 120 731.7 120 686 120C640.3 120 594.7 120 548.8 120C503 120 457 120 411.2 120C365.3 120 319.7 120 274 120C228.3 120 182.7 120 137 120C91.3 120 45.7 120 22.8 120H0V62Z" fill="#7200BE"/>
<path d="M0 53L22.8 54.5C45.7 56 91.3 59 137 61.2C182.7 63.3 228.3 64.7 274 63.5C319.7 62.3 365.3 58.7 411.2 59.7C457 60.7 503 66.3 548.8 69.3C594.7 72.3 640.3 72.7 686 71.5C731.7 70.3 777.3 67.7 823 66.2C868.7 64.7 914.3 64.3 937.2 64.2L960 64V120H937.2C914.3 120 868.7 120 823 120C777.3 120 731.7 120 686 120C640.3 120 594.7 120 548.8 120C503 120 457 120 411.2 120C365.3 120 319.7 120 274 120C228.3 120 182.7 120 137 120C91.3 120 45.7 120 22.8 120H0V53Z" fill="#7C00CE"/>
<path d="M0 67L22.8 69.5C45.7 72 91.3 77 137 80.7C182.7 84.3 228.3 86.7 274 87.2C319.7 87.7 365.3 86.3 411.2 85.8C457 85.3 503 85.7 548.8 83.7C594.7 81.7 640.3 77.3 686 77.2C731.7 77 777.3 81 823 81.5C868.7 82 914.3 79 937.2 77.5L960 76V120H937.2C914.3 120 868.7 120 823 120C777.3 120 731.7 120 686 120C640.3 120 594.7 120 548.8 120C503 120 457 120 411.2 120C365.3 120 319.7 120 274 120C228.3 120 182.7 120 137 120C91.3 120 45.7 120 22.8 120H0V67Z" fill="#8500DE"/>
<path d="M0 89L22.8 88.2C45.7 87.3 91.3 85.7 137 85.5C182.7 85.3 228.3 86.7 274 86.3C319.7 86 365.3 84 411.2 83.8C457 83.7 503 85.3 548.8 86.7C594.7 88 640.3 89 686 90C731.7 91 777.3 92 823 93.2C868.7 94.3 914.3 95.7 937.2 96.3L960 97V120H937.2C914.3 120 868.7 120 823 120C777.3 120 731.7 120 686 120C640.3 120 594.7 120 548.8 120C503 120 457 120 411.2 120C365.3 120 319.7 120 274 120C228.3 120 182.7 120 137 120C91.3 120 45.7 120 22.8 120H0V89Z" fill="#8F00EE"/>
<path d="M0 106L22.8 104.5C45.7 103 91.3 99.9999 137 98.9999C182.7 97.9999 228.3 98.9999 274 99.9999C319.7 101 365.3 102 411.2 103C457 104 503 105 548.8 105.8C594.7 106.7 640.3 107.3 686 105.7C731.7 104 777.3 100 823 98.7C868.7 97.3 914.3 98.6999 937.2 99.2999L960 99.9999V120H937.2C914.3 120 868.7 120 823 120C777.3 120 731.7 120 686 120C640.3 120 594.7 120 548.8 120C503 120 457 120 411.2 120C365.3 120 319.7 120 274 120C228.3 120 182.7 120 137 120C91.3 120 45.7 120 22.8 120H0V106Z" fill="#9900FF"/>
</svg>
