<svg id="visual" viewBox="0 0 960 300" width="960" height="300" xmlns="http://www.w3.org/2000/svg" xmlns:xlink="http://www.w3.org/1999/xlink" version="1.1"><rect x="0" y="0" width="960" height="300" fill="#2c0149"></rect><path d="M0 100L22.8 104.2C45.7 108.3 91.3 116.7 137 117C182.7 117.3 228.3 109.7 274 108C319.7 106.3 365.3 110.7 411.2 111.8C457 113 503 111 548.8 109.3C594.7 107.7 640.3 106.3 686 102.8C731.7 99.3 777.3 93.7 823 90.5C868.7 87.3 914.3 86.7 937.2 86.3L960 86L960 0L937.2 0C914.3 0 868.7 0 823 0C777.3 0 731.7 0 686 0C640.3 0 594.7 0 548.8 0C503 0 457 0 411.2 0C365.3 0 319.7 0 274 0C228.3 0 182.7 0 137 0C91.3 0 45.7 0 22.8 0L0 0Z" fill="#560090"></path><path d="M0 81L22.8 82.3C45.7 83.7 91.3 86.3 137 89.5C182.7 92.7 228.3 96.3 274 94.7C319.7 93 365.3 86 411.2 82.8C457 79.7 503 80.3 548.8 84.2C594.7 88 640.3 95 686 94.8C731.7 94.7 777.3 87.3 823 85.2C868.7 83 914.3 86 937.2 87.5L960 89L960 0L937.2 0C914.3 0 868.7 0 823 0C777.3 0 731.7 0 686 0C640.3 0 594.7 0 548.8 0C503 0 457 0 411.2 0C365.3 0 319.7 0 274 0C228.3 0 182.7 0 137 0C91.3 0 45.7 0 22.8 0L0 0Z" fill="#5f009f"></path><path d="M0 96L22.8 94.2C45.7 92.3 91.3 88.7 137 86C182.7 83.3 228.3 81.7 274 82.3C319.7 83 365.3 86 411.2 85.7C457 85.3 503 81.7 548.8 81.8C594.7 82 640.3 86 686 85.2C731.7 84.3 777.3 78.7 823 75.5C868.7 72.3 914.3 71.7 937.2 71.3L960 71L960 0L937.2 0C914.3 0 868.7 0 823 0C777.3 0 731.7 0 686 0C640.3 0 594.7 0 548.8 0C503 0 457 0 411.2 0C365.3 0 319.7 0 274 0C228.3 0 182.7 0 137 0C91.3 0 45.7 0 22.8 0L0 0Z" fill="#6900ae"></path><path d="M0 55L22.8 55.2C45.7 55.3 91.3 55.7 137 55.2C182.7 54.7 228.3 53.3 274 56C319.7 58.7 365.3 65.3 411.2 68.8C457 72.3 503 72.7 548.8 69.5C594.7 66.3 640.3 59.7 686 56.7C731.7 53.7 777.3 54.3 823 55.7C868.7 57 914.3 59 937.2 60L960 61L960 0L937.2 0C914.3 0 868.7 0 823 0C777.3 0 731.7 0 686 0C640.3 0 594.7 0 548.8 0C503 0 457 0 411.2 0C365.3 0 319.7 0 274 0C228.3 0 182.7 0 137 0C91.3 0 45.7 0 22.8 0L0 0Z" fill="#7200be"></path><path d="M0 64L22.8 62.5C45.7 61 91.3 58 137 55.8C182.7 53.7 228.3 52.3 274 53.5C319.7 54.7 365.3 58.3 411.2 57.3C457 56.3 503 50.7 548.8 47.7C594.7 44.7 640.3 44.3 686 45.5C731.7 46.7 777.3 49.3 823 50.8C868.7 52.3 914.3 52.7 937.2 52.8L960 53L960 0L937.2 0C914.3 0 868.7 0 823 0C777.3 0 731.7 0 686 0C640.3 0 594.7 0 548.8 0C503 0 457 0 411.2 0C365.3 0 319.7 0 274 0C228.3 0 182.7 0 137 0C91.3 0 45.7 0 22.8 0L0 0Z" fill="#7c00ce"></path><path d="M0 50L22.8 47.5C45.7 45 91.3 40 137 36.3C182.7 32.7 228.3 30.3 274 29.8C319.7 29.3 365.3 30.7 411.2 31.2C457 31.7 503 31.3 548.8 33.3C594.7 35.3 640.3 39.7 686 39.8C731.7 40 777.3 36 823 35.5C868.7 35 914.3 38 937.2 39.5L960 41L960 0L937.2 0C914.3 0 868.7 0 823 0C777.3 0 731.7 0 686 0C640.3 0 594.7 0 548.8 0C503 0 457 0 411.2 0C365.3 0 319.7 0 274 0C228.3 0 182.7 0 137 0C91.3 0 45.7 0 22.8 0L0 0Z" fill="#8500de"></path><path d="M0 28L22.8 28.8C45.7 29.7 91.3 31.3 137 31.5C182.7 31.7 228.3 30.3 274 30.7C319.7 31 365.3 33 411.2 33.2C457 33.3 503 31.7 548.8 30.3C594.7 29 640.3 28 686 27C731.7 26 777.3 25 823 23.8C868.7 22.7 914.3 21.3 937.2 20.7L960 20L960 0L937.2 0C914.3 0 868.7 0 823 0C777.3 0 731.7 0 686 0C640.3 0 594.7 0 548.8 0C503 0 457 0 411.2 0C365.3 0 319.7 0 274 0C228.3 0 182.7 0 137 0C91.3 0 45.7 0 22.8 0L0 0Z" fill="#8f00ee"></path><path d="M0 11L22.8 12.5C45.7 14 91.3 17 137 18C182.7 19 228.3 18 274 17C319.7 16 365.3 15 411.2 14C457 13 503 12 548.8 11.2C594.7 10.3 640.3 9.7 686 11.3C731.7 13 777.3 17 823 18.3C868.7 19.7 914.3 18.3 937.2 17.7L960 17L960 0L937.2 0C914.3 0 868.7 0 823 0C777.3 0 731.7 0 686 0C640.3 0 594.7 0 548.8 0C503 0 457 0 411.2 0C365.3 0 319.7 0 274 0C228.3 0 182.7 0 137 0C91.3 0 45.7 0 22.8 0L0 0Z" fill="#9900ff"></path></svg>