<?xml version="1.0" standalone="no"?><svg xmlns="http://www.w3.org/2000/svg" viewBox="0 0 1440 320"><path fill="#f3f4f5" fill-opacity="1" d="M0,224L34.3,213.3C68.6,203,137,181,206,186.7C274.3,192,343,224,411,245.3C480,267,549,277,617,250.7C685.7,224,754,160,823,144C891.4,128,960,160,1029,181.3C1097.1,203,1166,213,1234,208C1302.9,203,1371,181,1406,170.7L1440,160L1440,320L1405.7,320C1371.4,320,1303,320,1234,320C1165.7,320,1097,320,1029,320C960,320,891,320,823,320C754.3,320,686,320,617,320C548.6,320,480,320,411,320C342.9,320,274,320,206,320C137.1,320,69,320,34,320L0,320Z"></path></svg>